<svg width="640" height="480" xmlns="http://www.w3.org/2000/svg">
 <!-- Created with Method Draw - http://github.com/duopixel/Method-Draw/ -->
 <g>
  <title>background</title>
  <rect fill="#fff" id="canvas_background" height="482" width="642" y="-1" x="-1"/>
  <g display="none" overflow="visible" y="0" x="0" height="100%" width="100%" id="canvasGrid">
   <rect fill="url(#gridpattern)" stroke-width="0" y="0" x="0" height="100%" width="100%"/>
  </g>
 </g>
 <g>
  <title>Layer 1</title>
  <rect stroke="#000" id="svg_19" height="252.99997" width="257.99996" y="65.05001" x="163.50003" stroke-opacity="null" stroke-width="1.5" fill="#ff0000"/>
  <path stroke="#ffff00" id="svg_20" d="m219.7097,207.70914c-8.31377,-1.87346 -13.13018,-9.57565 -12.56206,-16.56282c-0.21283,-9.12656 0.77844,-18.73003 -4.35923,-27.12179c-2.9284,-6.26563 -7.91697,-11.79763 -9.99877,-18.32709c-2.59059,-10.13002 0.60934,-21.61138 10.2509,-28.41206c10.8734,-7.91451 28.23739,-8.94608 40.20685,-2.21922c8.44215,4.93967 14.53335,13.08688 14.30705,21.97741c0.99059,6.64319 -2.09592,12.89169 -5.72687,18.6026c-2.60142,4.59825 -5.6395,9.09787 -8.0007,13.7474c-0.62247,9.53326 -0.26547,19.15395 -1.95385,28.60521c-2.81253,7.32364 -13.41188,12.30299 -22.16332,9.71036l0,0zm21.95791,-17.04562c-4.93399,-2.25919 -12.0241,-0.79037 -17.75915,-1.27674c-4.68477,0.79596 -13.00911,-1.63259 -15.49963,2.01034c5.69566,1.89264 12.38926,0.47389 18.45283,0.78702c4.85177,-0.39583 10.43384,0.37537 14.80595,-1.52062l0,0zm-0.36952,-4.25115c0.72612,-5.73969 -9.95883,-2.81083 -14.29946,-3.66526c-5.7451,0.9878 -14.88792,-2.11442 -18.50113,2.29558c2.14108,4.4317 11.68973,1.31493 16.7039,2.29821c5.34711,-0.16095 10.89448,0.1628 16.09669,-0.92853l0,0zm0.06653,-10.05644c1.41055,-11.18106 9.45849,-20.49072 14.11861,-30.71855c3.83151,-12.24565 -3.75668,-26.23575 -17.495,-31.37595c-13.67439,-5.75694 -31.89311,-1.40792 -39.62096,9.87266c-7.44584,9.31806 -6.02485,21.9787 1.25252,31.04043c5.19259,7.91948 9.33548,16.81932 8.66062,26.03578c10.7786,0 21.5572,0 32.33581,0c0.24948,-1.6181 0.49887,-3.23631 0.7484,-4.85437zm-23.86203,-15.84054c-4.27052,-6.30759 -8.65454,-12.66378 -11.62832,-19.49966c2.67362,-2.93988 3.45139,-6.21459 4.28194,-9.6688c7.50406,-1.25209 -0.95518,7.26416 6.12972,7.45607c6.28892,2.32434 3.53007,-11.27843 8.75503,-6.37528c-3.75066,5.38119 7.36728,10.73444 7.77532,3.03641c-0.53898,-5.81237 6.71998,-4.72337 3.88986,0.54965c0.23359,2.71253 5.43264,3.49018 5.52166,5.67184c-3.7428,6.8963 -6.9961,14.01619 -11.428,20.61822c-0.99758,-2.55613 3.92353,-8.96262 5.49602,-12.72423c3.03432,-3.25159 5.64175,-12.01435 -2.26854,-10.81989c-4.58867,6.0797 -10.76141,-3.83232 -15.25436,1.99416c-3.81404,0.96643 -9.8127,-5.61099 -10.91911,0.71332c2.87257,7.51166 8.84977,13.91351 11.97714,21.34763c-1.0612,-0.53149 -1.66548,-1.46393 -2.32836,-2.29944l0,0zm-5.99415,-27.52932c-2.07664,-0.86094 0.87529,4.57693 -0.00004,0l0.00004,0zm-31.56623,-27.99346c-4.7646,-4.10766 -10.03129,-7.96203 -14.17493,-12.48981c10.35172,7.27894 19.82648,15.47659 29.15537,23.69476c2.47723,2.89162 -4.3217,-2.70029 -5.58708,-3.63762c-3.16614,-2.49083 -6.2908,-5.01951 -9.39336,-7.56733l0,0zm73.57506,11.74425c8.05335,-8.52385 15.5673,-17.45991 24.24999,-25.52972c-1.4539,3.47445 -6.13411,7.63189 -9.07686,11.21026c-4.91437,5.1936 -9.50801,10.68487 -15.12771,15.34143c-0.7014,0.62977 -1.74876,-0.86188 -0.04534,-1.02197l-0.00007,0l-0.00001,0zm-17.44373,-8.08646c2.7825,-6.76064 6.81856,-13.19597 11.32136,-19.24659c-0.10465,3.35658 -4.8802,9.71842 -7.17563,13.88045c-1.2985,1.67484 -2.39376,4.34586 -4.14573,5.36614zm-35.63258,-8.67027c-1.93827,-2.40162 -7.77297,-7.99372 -6.68355,-8.75633c5.62541,5.29826 11.34689,10.76689 15.38791,17.03254c-3.44134,-2.24202 -5.91752,-5.48024 -8.70437,-8.27621l0.00001,0zm22.27643,-1.8901c-0.39227,-2.25545 0.82548,-13.02245 1.50199,-5.71143c0.0024,4.58069 0.56527,9.73743 -0.9357,13.90672c-0.64275,-2.68052 -0.48681,-5.47111 -0.56629,-8.19529z" stroke-width="1.5" fill="#00bf00"/>
  <path id="svg_21" d="m243.01063,173.6701c-0.08837,-0.02344 -0.13956,-0.11982 -0.13352,-0.20725c-0.00226,-0.1142 0.00827,-0.23437 -0.04634,-0.33937c-0.03113,-0.0784 -0.08415,-0.14762 -0.10628,-0.22933c-0.02754,-0.12676 0.00648,-0.27042 0.10896,-0.35552c0.11558,-0.09903 0.30014,-0.11194 0.42737,-0.02777c0.08973,0.06181 0.15448,0.16375 0.15207,0.275c0.01053,0.08313 -0.02228,0.16131 -0.06087,0.23277c-0.02765,0.05754 -0.05994,0.11384 -0.08504,0.17202c-0.00662,0.11929 -0.00282,0.23967 -0.02077,0.35793c-0.02989,0.09164 -0.14256,0.15395 -0.23558,0.1215l0,0zm0.2334,-0.21329c-0.05244,-0.02827 -0.12781,-0.00989 -0.18877,-0.01598c-0.0498,0.00996 -0.13828,-0.02043 -0.16475,0.02516c0.06054,0.02368 0.13169,0.00593 0.19614,0.00985c0.05157,-0.00495 0.1109,0.0047 0.15738,-0.01903l0,0zm-0.00393,-0.05319c0.00772,-0.07182 -0.10585,-0.03517 -0.15199,-0.04586c-0.06107,0.01236 -0.15825,-0.02646 -0.19665,0.02872c0.02276,0.05545 0.12425,0.01645 0.17755,0.02876c0.05684,-0.00201 0.1158,0.00204 0.17109,-0.01162l0,0zm0.00071,-0.12584c0.01499,-0.13991 0.10054,-0.2564 0.15007,-0.38438c0.04073,-0.15323 -0.03993,-0.32829 -0.18596,-0.3926c-0.14535,-0.07204 -0.339,-0.01762 -0.42114,0.12354c-0.07914,0.1166 -0.06404,0.27502 0.01331,0.38841c0.05519,0.0991 0.09923,0.21046 0.09206,0.32578c0.11457,0 0.22914,0 0.3437,0c0.00265,-0.02025 0.0053,-0.0405 0.00795,-0.06074zm-0.25363,-0.19821c-0.04539,-0.07893 -0.09199,-0.15846 -0.1236,-0.244c0.02842,-0.03679 0.03669,-0.07776 0.04551,-0.12098c0.07976,-0.01567 -0.01015,0.0909 0.06515,0.0933c0.06685,0.02908 0.03752,-0.14113 0.09306,-0.07977c-0.03987,0.06733 0.07831,0.13432 0.08265,0.03799c-0.00573,-0.07273 0.07143,-0.0591 0.04135,0.00688c0.00248,0.03394 0.05774,0.04367 0.05869,0.07097c-0.03978,0.08629 -0.07436,0.17538 -0.12147,0.25799c-0.0106,-0.03198 0.0417,-0.11215 0.05842,-0.15922c0.03225,-0.04069 0.05997,-0.15033 -0.02411,-0.13539c-0.04877,0.07607 -0.11439,-0.04795 -0.16214,0.02495c-0.04054,0.01209 -0.1043,-0.07021 -0.11606,0.00893c0.03053,0.09399 0.09407,0.1741 0.12731,0.26712c-0.01128,-0.00665 -0.0177,-0.01832 -0.02475,-0.02877l0,0zm-0.06371,-0.34447c-0.02207,-0.01077 0.0093,0.05727 0,0l0,0zm0.13193,0.00804c-0.02865,-0.04849 -0.01329,0.05884 0,0zm0.12788,0c-0.02865,-0.04849 -0.01329,0.05884 0,0zm-0.59533,-0.35832c-0.05064,-0.0514 -0.10662,-0.09963 -0.15067,-0.15628c0.11003,0.09108 0.21074,0.19366 0.3099,0.29649c0.02633,0.03618 -0.04594,-0.03379 -0.05939,-0.04552c-0.03365,-0.03117 -0.06687,-0.06281 -0.09984,-0.09469l0,0zm0.78204,0.14695c0.0856,-0.10666 0.16547,-0.21847 0.25776,-0.31945c-0.01545,0.04348 -0.0652,0.0955 -0.09648,0.14027c-0.05224,0.06499 -0.10106,0.1337 -0.1608,0.19197c-0.00746,0.00788 -0.01859,-0.01078 -0.00048,-0.01279l0,0l0,0zm-0.18541,-0.10119c0.02958,-0.0846 0.07248,-0.16512 0.12034,-0.24083c-0.00111,0.042 -0.05187,0.12161 -0.07627,0.17368c-0.0138,0.02096 -0.02544,0.05438 -0.04407,0.06715zm-0.37875,-0.10849c-0.0206,-0.03005 -0.08262,-0.10002 -0.07104,-0.10957c0.05979,0.0663 0.12061,0.13473 0.16356,0.21313c-0.03658,-0.02805 -0.0629,-0.06857 -0.09252,-0.10356l0,0zm0.23678,-0.02365c-0.00417,-0.02822 0.00877,-0.16295 0.01596,-0.07147c0.00003,0.05732 0.00601,0.12184 -0.00995,0.17401c-0.00683,-0.03354 -0.00517,-0.06846 -0.00602,-0.10255z" fill-opacity="null" stroke-opacity="null" stroke-width="1.5" stroke="#000" fill="#ff0000"/>
  <path id="svg_22" d="m174.35564,269.19008c-0.08837,-0.02344 -0.13956,-0.11982 -0.13352,-0.20725c-0.00226,-0.1142 0.00827,-0.23437 -0.04634,-0.33937c-0.03113,-0.0784 -0.08415,-0.14762 -0.10628,-0.22933c-0.02754,-0.12676 0.00648,-0.27042 0.10896,-0.35552c0.11558,-0.09903 0.30014,-0.11194 0.42737,-0.02777c0.08973,0.06181 0.15448,0.16375 0.15207,0.275c0.01053,0.08313 -0.02228,0.16131 -0.06087,0.23277c-0.02765,0.05754 -0.05994,0.11384 -0.08504,0.17202c-0.00662,0.11929 -0.00282,0.23967 -0.02077,0.35793c-0.02989,0.09164 -0.14256,0.15395 -0.23558,0.1215l0,0zm0.2334,-0.21329c-0.05244,-0.02827 -0.12781,-0.00989 -0.18877,-0.01598c-0.0498,0.00996 -0.13828,-0.02043 -0.16475,0.02516c0.06054,0.02368 0.13169,0.00593 0.19614,0.00985c0.05157,-0.00495 0.1109,0.0047 0.15738,-0.01903l0,0zm-0.00393,-0.05319c0.00772,-0.07182 -0.10585,-0.03517 -0.15199,-0.04586c-0.06107,0.01236 -0.15825,-0.02646 -0.19665,0.02872c0.02276,0.05545 0.12425,0.01645 0.17755,0.02876c0.05684,-0.00201 0.1158,0.00204 0.17109,-0.01162l0,0zm0.00071,-0.12584c0.01499,-0.13991 0.10054,-0.2564 0.15007,-0.38438c0.04073,-0.15323 -0.03993,-0.32829 -0.18596,-0.3926c-0.14535,-0.07204 -0.339,-0.01762 -0.42114,0.12354c-0.07914,0.1166 -0.06404,0.27502 0.01331,0.38841c0.05519,0.0991 0.09923,0.21046 0.09206,0.32578c0.11457,0 0.22914,0 0.3437,0c0.00265,-0.02025 0.0053,-0.0405 0.00795,-0.06074zm-0.25363,-0.19821c-0.04539,-0.07893 -0.09199,-0.15846 -0.1236,-0.244c0.02842,-0.03679 0.03669,-0.07776 0.04551,-0.12098c0.07976,-0.01567 -0.01015,0.0909 0.06515,0.0933c0.06685,0.02908 0.03752,-0.14113 0.09306,-0.07977c-0.03987,0.06733 0.07831,0.13432 0.08265,0.03799c-0.00573,-0.07273 0.07143,-0.0591 0.04135,0.00688c0.00248,0.03394 0.05774,0.04367 0.05869,0.07097c-0.03978,0.08629 -0.07436,0.17538 -0.12147,0.25799c-0.0106,-0.03198 0.0417,-0.11215 0.05842,-0.15922c0.03225,-0.04069 0.05997,-0.15033 -0.02411,-0.13539c-0.04877,0.07607 -0.11439,-0.04795 -0.16214,0.02495c-0.04054,0.01209 -0.1043,-0.07021 -0.11606,0.00893c0.03053,0.09399 0.09407,0.1741 0.12731,0.26712c-0.01128,-0.00665 -0.0177,-0.01832 -0.02475,-0.02877l0,0zm-0.06371,-0.34447c-0.02207,-0.01077 0.0093,0.05727 0,0l0,0zm0.13193,0.00804c-0.02865,-0.04849 -0.01329,0.05884 0,0zm0.12788,0c-0.02865,-0.04849 -0.01329,0.05884 0,0zm-0.59533,-0.35832c-0.05064,-0.0514 -0.10662,-0.09963 -0.15067,-0.15628c0.11003,0.09108 0.21074,0.19366 0.3099,0.29649c0.02633,0.03618 -0.04594,-0.03379 -0.05939,-0.04552c-0.03365,-0.03117 -0.06687,-0.06281 -0.09984,-0.09469l0,0zm0.78204,0.14695c0.0856,-0.10666 0.16547,-0.21847 0.25776,-0.31945c-0.01545,0.04348 -0.0652,0.0955 -0.09648,0.14027c-0.05224,0.06499 -0.10106,0.1337 -0.1608,0.19197c-0.00746,0.00788 -0.01859,-0.01078 -0.00048,-0.01279l0,0l0,0zm-0.18541,-0.10119c0.02958,-0.0846 0.07248,-0.16512 0.12034,-0.24083c-0.00111,0.042 -0.05187,0.12161 -0.07627,0.17368c-0.0138,0.02096 -0.02544,0.05438 -0.04407,0.06715zm-0.37875,-0.10849c-0.0206,-0.03005 -0.08262,-0.10002 -0.07104,-0.10957c0.05979,0.0663 0.12061,0.13473 0.16356,0.21313c-0.03658,-0.02805 -0.0629,-0.06857 -0.09252,-0.10356l0,0zm0.23678,-0.02365c-0.00417,-0.02822 0.00877,-0.16295 0.01596,-0.07147c0.00003,0.05732 0.00601,0.12184 -0.00995,0.17401c-0.00683,-0.03354 -0.00517,-0.06846 -0.00602,-0.10255z" fill-opacity="null" stroke-opacity="null" stroke-width="1.5" stroke="#000" fill="#ff0000"/>
  <path stroke="#000" id="svg_27" d="m351.8474,75.72976l0,15.38603c-28.82019,2.16965 -51.51998,25.06952 -51.52,52.99632c0,-5.03296 6.27201,-9.11764 14,-9.11764c7.72799,0 14,4.08468 14,9.11764c0,-5.03296 6.27201,-9.11764 14,-9.11764c3.68037,0 7.02027,0.9553 9.52,2.46936l0,75.03063c0,3.35533 -2.00703,6.07844 -4.48,6.07844c-2.47295,0 -4.48,-2.72312 -4.48,-6.07844l0,-3.03922l-8.96,0l0,3.03922c0,10.06588 6.02111,18.2353 13.44,18.2353c7.41887,0 13.44,-8.16942 13.44,-18.2353l0,-75.03063c2.49972,-1.51407 5.83963,-2.46936 9.52,-2.46936c7.72799,0 14,4.08468 14,9.11764c0,-5.03296 6.27201,-9.11764 14,-9.11764c7.72799,0 14,4.08468 14,9.11764c0,-27.92682 -22.69979,-50.82667 -51.52,-52.99632l0,-15.38603l-8.96001,0z" stroke-opacity="null" stroke-width="1.5" fill="#00007f"/>
  <path id="svg_28" d="m418.0941,170.19975l0,0.14782c-0.37569,0.02085 -0.6716,0.24086 -0.6716,0.50917c0,-0.04836 0.08176,-0.0876 0.1825,-0.0876c0.10074,0 0.1825,0.03924 0.1825,0.0876c0,-0.04836 0.08176,-0.0876 0.1825,-0.0876c0.04798,0 0.09151,0.00918 0.1241,0.02372l0,0.72087c0,0.03224 -0.02616,0.0584 -0.0584,0.0584c-0.03224,0 -0.0584,-0.02616 -0.0584,-0.0584l0,-0.0292l-0.1168,0l0,0.0292c0,0.09671 0.07849,0.1752 0.1752,0.1752c0.09671,0 0.1752,-0.07849 0.1752,-0.1752l0,-0.72087c0.03259,-0.01455 0.07612,-0.02372 0.1241,-0.02372c0.10074,0 0.1825,0.03924 0.1825,0.0876c0,-0.04836 0.08176,-0.0876 0.1825,-0.0876c0.10074,0 0.1825,0.03924 0.1825,0.0876c0,-0.26831 -0.29591,-0.48833 -0.6716,-0.50917l0,-0.14782l-0.1168,0z" fill-opacity="null" stroke-opacity="null" stroke-width="1.5" stroke="#000" fill="#ff0000"/>
  <path stroke="#000" id="svg_29" d="m416.1041,192.08975l0,0.14782c-0.37569,0.02085 -0.6716,0.24086 -0.6716,0.50917c0,-0.04836 0.08176,-0.0876 0.1825,-0.0876c0.10074,0 0.1825,0.03924 0.1825,0.0876c0,-0.04836 0.08176,-0.0876 0.1825,-0.0876c0.04798,0 0.09151,0.00918 0.1241,0.02372l0,0.72087c0,0.03224 -0.02616,0.0584 -0.0584,0.0584c-0.03224,0 -0.0584,-0.02616 -0.0584,-0.0584l0,-0.0292l-0.1168,0l0,0.0292c0,0.09671 0.07849,0.1752 0.1752,0.1752c0.09671,0 0.1752,-0.07849 0.1752,-0.1752l0,-0.72087c0.03259,-0.01455 0.07612,-0.02372 0.1241,-0.02372c0.10074,0 0.1825,0.03924 0.1825,0.0876c0,-0.04836 0.08176,-0.0876 0.1825,-0.0876c0.10074,0 0.1825,0.03924 0.1825,0.0876c0,-0.26831 -0.29591,-0.48833 -0.6716,-0.50917l0,-0.14782l-0.1168,0z" fill-opacity="null" stroke-opacity="null" stroke-width="1.5" fill="#ff0000"/>
  <path id="svg_30" d="m305.9308,199.0438c-3.98406,-1.93508 -8.78259,-0.27357 -10.72447,3.72935c-1.93386,4.00291 -0.2648,8.81445 3.71926,10.75355c12.49784,6.09891 21.12396,18.92835 21.11594,33.79746c-0.04012,20.73469 -16.77078,37.51071 -37.44538,37.54692c-20.67861,-0.04023 -37.40927,-16.81626 -37.44939,-37.54692c-0.00802,-14.87716 8.62211,-27.71866 21.13198,-33.8055c3.99209,-1.9391 5.6491,-6.75064 3.71926,-10.75355c-1.93386,-3.99487 -6.72436,-5.66845 -10.71645,-3.72935c-17.86208,8.66963 -30.17938,27.04682 -30.1874,48.28841c0.00802,29.62558 23.94851,53.63501 53.50199,53.64306c29.54947,-0.00805 53.49397,-24.01748 53.49798,-53.64306c-0.00802,-21.23354 -12.30927,-39.59867 -30.16333,-48.28036zm-23.33465,39.56246c4.42941,0 8.02028,-3.59659 8.02028,-8.04606l0,-37.55094c0,-4.44545 -3.59087,-8.04203 -8.02028,-8.04203c-4.43744,0 -8.0243,3.60061 -8.0243,8.04203l0,37.54692c0,4.44947 3.58686,8.05008 8.0243,8.05008z" stroke-opacity="null" stroke-width="1.5" stroke="#000" fill="#11d8a6"/>
  <path id="svg_32" d="m259.30658,257.77473c-0.00496,-0.0024 -0.01094,-0.00034 -0.01336,0.00463c-0.00241,0.00497 -0.00033,0.01095 0.00463,0.01336c0.01557,0.00758 0.02632,0.02352 0.02631,0.042c-0.00005,0.02577 -0.0209,0.04662 -0.04666,0.04666c-0.02577,-0.00005 -0.04662,-0.0209 -0.04667,-0.04666c-0.00001,-0.01849 0.01074,-0.03445 0.02633,-0.04201c0.00497,-0.00241 0.00704,-0.00839 0.00463,-0.01336c-0.00241,-0.00496 -0.00838,-0.00704 -0.01335,-0.00463c-0.02226,0.01077 -0.03761,0.03361 -0.03762,0.06001c0.00001,0.03682 0.02984,0.06666 0.06667,0.06667c0.03682,-0.00001 0.06666,-0.02985 0.06667,-0.06667c-0.00001,-0.02639 -0.01534,-0.04921 -0.03759,-0.06zm-0.02908,0.04917c0.00552,0 0.00999,-0.00447 0.00999,-0.01l0,-0.04667c0,-0.00552 -0.00447,-0.00999 -0.00999,-0.00999c-0.00553,0 -0.01,0.00447 -0.01,0.00999l0,0.04666c0,0.00553 0.00447,0.01 0.01,0.01z" fill-opacity="null" stroke-opacity="null" stroke-width="1.5" stroke="#000" fill="#ff0000"/>
  <path id="svg_33" d="m400.59658,311.50473c-0.00496,-0.0024 -0.01094,-0.00034 -0.01336,0.00463c-0.00241,0.00497 -0.00033,0.01095 0.00463,0.01336c0.01557,0.00758 0.02632,0.02352 0.02631,0.042c-0.00005,0.02577 -0.0209,0.04662 -0.04666,0.04666c-0.02577,-0.00005 -0.04662,-0.0209 -0.04667,-0.04666c-0.00001,-0.01849 0.01074,-0.03445 0.02633,-0.04201c0.00497,-0.00241 0.00704,-0.00839 0.00463,-0.01336c-0.00241,-0.00496 -0.00838,-0.00704 -0.01335,-0.00463c-0.02226,0.01077 -0.03761,0.03361 -0.03762,0.06001c0.00001,0.03682 0.02984,0.06666 0.06667,0.06667c0.03682,-0.00001 0.06666,-0.02985 0.06667,-0.06667c-0.00001,-0.02639 -0.01534,-0.04921 -0.03759,-0.06zm-0.02908,0.04917c0.00552,0 0.00999,-0.00447 0.00999,-0.01l0,-0.04667c0,-0.00552 -0.00447,-0.00999 -0.00999,-0.00999c-0.00553,0 -0.01,0.00447 -0.01,0.00999l0,0.04666c0,0.00553 0.00447,0.01 0.01,0.01z" fill-opacity="null" stroke-opacity="null" stroke-width="1.5" stroke="#000" fill="#ff0000"/>
  <path id="svg_34" d="m320.99658,243.84475c-0.00496,-0.0024 -0.01094,-0.00034 -0.01336,0.00463c-0.00241,0.00497 -0.00033,0.01095 0.00463,0.01336c0.01557,0.00758 0.02632,0.02352 0.02631,0.042c-0.00005,0.02577 -0.0209,0.04662 -0.04666,0.04666c-0.02577,-0.00005 -0.04662,-0.0209 -0.04667,-0.04666c-0.00001,-0.01849 0.01074,-0.03445 0.02633,-0.04201c0.00497,-0.00241 0.00704,-0.00839 0.00463,-0.01336c-0.00241,-0.00496 -0.00838,-0.00704 -0.01335,-0.00463c-0.02226,0.01077 -0.03761,0.03361 -0.03762,0.06001c0.00001,0.03682 0.02984,0.06666 0.06667,0.06667c0.03682,-0.00001 0.06666,-0.02985 0.06667,-0.06667c-0.00001,-0.02639 -0.01534,-0.04921 -0.03759,-0.06zm-0.02908,0.04917c0.00552,0 0.00999,-0.00447 0.00999,-0.01l0,-0.04667c0,-0.00552 -0.00447,-0.00999 -0.00999,-0.00999c-0.00553,0 -0.01,0.00447 -0.01,0.00999l0,0.04666c0,0.00553 0.00447,0.01 0.01,0.01z" fill-opacity="null" stroke-opacity="null" stroke-width="1.5" stroke="#000" fill="#ff0000"/>
  <path stroke="#000" id="svg_35" d="m277.21658,257.77473c-0.00496,-0.0024 -0.01094,-0.00034 -0.01336,0.00463c-0.00241,0.00497 -0.00033,0.01095 0.00463,0.01336c0.01557,0.00758 0.02632,0.02352 0.02631,0.042c-0.00005,0.02577 -0.0209,0.04662 -0.04666,0.04666c-0.02577,-0.00005 -0.04662,-0.0209 -0.04667,-0.04666c-0.00001,-0.01849 0.01074,-0.03445 0.02633,-0.04201c0.00497,-0.00241 0.00704,-0.00839 0.00463,-0.01336c-0.00241,-0.00496 -0.00838,-0.00704 -0.01335,-0.00463c-0.02226,0.01077 -0.03761,0.03361 -0.03762,0.06001c0.00001,0.03682 0.02984,0.06666 0.06667,0.06667c0.03682,-0.00001 0.06666,-0.02985 0.06667,-0.06667c-0.00001,-0.02639 -0.01534,-0.04921 -0.03759,-0.06zm-0.02908,0.04917c0.00552,0 0.00999,-0.00447 0.00999,-0.01l0,-0.04667c0,-0.00552 -0.00447,-0.00999 -0.00999,-0.00999c-0.00553,0 -0.01,0.00447 -0.01,0.00999l0,0.04666c0,0.00553 0.00447,0.01 0.01,0.01z" fill-opacity="null" stroke-opacity="null" stroke-width="1.5" fill="#ff0000"/>
 </g>
</svg>